<mxfile host="Electron" agent="Mozilla/5.0 (Macintosh; Intel Mac OS X 10_15_7) AppleWebKit/537.36 (KHTML, like Gecko) draw.io/26.2.2 Chrome/134.0.6998.178 Electron/35.1.2 Safari/537.36" version="26.2.2">
  <diagram name="Page-1" id="BmvLOZqxG9asDE2gqq18">
    <mxGraphModel dx="1188" dy="829" grid="1" gridSize="10" guides="1" tooltips="1" connect="1" arrows="1" fold="1" page="1" pageScale="1" pageWidth="827" pageHeight="1169" math="0" shadow="0">
      <root>
        <mxCell id="0" />
        <mxCell id="1" parent="0" />
        <mxCell id="mR5br-HFFlUpTuxSKlOb-29" value="LitDataModule" style="rounded=0;whiteSpace=wrap;html=1;" parent="1" vertex="1">
          <mxGeometry x="121" y="430" width="160" height="120" as="geometry" />
        </mxCell>
        <mxCell id="mR5br-HFFlUpTuxSKlOb-27" value="" style="rounded=1;whiteSpace=wrap;html=1;" parent="1" vertex="1">
          <mxGeometry x="30" y="80" width="180" height="140" as="geometry" />
        </mxCell>
        <mxCell id="mR5br-HFFlUpTuxSKlOb-13" value="" style="group" parent="1" vertex="1" connectable="0">
          <mxGeometry x="490" y="150" width="510" height="310" as="geometry" />
        </mxCell>
        <mxCell id="mR5br-HFFlUpTuxSKlOb-12" value="&amp;nbsp; &amp;nbsp; &amp;nbsp; &amp;nbsp; &amp;nbsp; &amp;nbsp; &amp;nbsp; &amp;nbsp; &amp;nbsp;&lt;div&gt;&lt;br&gt;&lt;/div&gt;&lt;div&gt;&lt;br&gt;&lt;/div&gt;&lt;div&gt;&lt;br&gt;&lt;/div&gt;&lt;div&gt;&lt;br&gt;&lt;/div&gt;&lt;div&gt;&lt;br&gt;&lt;/div&gt;&lt;div style=&quot;text-align: right;&quot;&gt;&amp;nbsp; &amp;nbsp; &amp;nbsp; &amp;nbsp; &amp;nbsp; &amp;nbsp; &amp;nbsp; &amp;nbsp; &amp;nbsp; &amp;nbsp; &amp;nbsp; &amp;nbsp; &amp;nbsp; &amp;nbsp; &amp;nbsp; &amp;nbsp; &amp;nbsp; &amp;nbsp; &amp;nbsp; &amp;nbsp; &amp;nbsp; &amp;nbsp; &amp;nbsp; &amp;nbsp; &amp;nbsp; &amp;nbsp; &amp;nbsp; &amp;nbsp; &amp;nbsp; &amp;nbsp; &amp;nbsp; &amp;nbsp; &amp;nbsp; &amp;nbsp; &amp;nbsp; &amp;nbsp; &amp;nbsp; &amp;nbsp; &amp;nbsp; &amp;nbsp; &amp;nbsp; &amp;nbsp; &amp;nbsp; &amp;nbsp;MP3&lt;/div&gt;" style="rounded=1;whiteSpace=wrap;html=1;" parent="mR5br-HFFlUpTuxSKlOb-13" vertex="1">
          <mxGeometry y="120" width="510" height="190" as="geometry" />
        </mxCell>
        <mxCell id="mR5br-HFFlUpTuxSKlOb-10" value="" style="shape=cylinder3;whiteSpace=wrap;html=1;boundedLbl=1;backgroundOutline=1;size=15;" parent="mR5br-HFFlUpTuxSKlOb-13" vertex="1">
          <mxGeometry x="220" y="210" width="60" height="80" as="geometry" />
        </mxCell>
        <mxCell id="mR5br-HFFlUpTuxSKlOb-1" value="Datasource" style="rounded=0;whiteSpace=wrap;html=1;" parent="mR5br-HFFlUpTuxSKlOb-13" vertex="1">
          <mxGeometry x="190" width="120" height="60" as="geometry" />
        </mxCell>
        <mxCell id="mR5br-HFFlUpTuxSKlOb-2" value="FMA" style="rounded=0;whiteSpace=wrap;html=1;" parent="mR5br-HFFlUpTuxSKlOb-13" vertex="1">
          <mxGeometry x="20" y="130" width="120" height="60" as="geometry" />
        </mxCell>
        <mxCell id="mR5br-HFFlUpTuxSKlOb-3" value="Million" style="rounded=0;whiteSpace=wrap;html=1;" parent="mR5br-HFFlUpTuxSKlOb-13" vertex="1">
          <mxGeometry x="190" y="130" width="120" height="60" as="geometry" />
        </mxCell>
        <mxCell id="mR5br-HFFlUpTuxSKlOb-4" value="MTG jamendo" style="rounded=0;whiteSpace=wrap;html=1;" parent="mR5br-HFFlUpTuxSKlOb-13" vertex="1">
          <mxGeometry x="360" y="130" width="120" height="60" as="geometry" />
        </mxCell>
        <mxCell id="mR5br-HFFlUpTuxSKlOb-5" value="" style="endArrow=block;html=1;rounded=0;endFill=0;entryX=0.5;entryY=1;entryDx=0;entryDy=0;" parent="mR5br-HFFlUpTuxSKlOb-13" source="mR5br-HFFlUpTuxSKlOb-3" target="mR5br-HFFlUpTuxSKlOb-1" edge="1">
          <mxGeometry width="50" height="50" relative="1" as="geometry">
            <mxPoint x="180" y="410" as="sourcePoint" />
            <mxPoint x="250" y="80" as="targetPoint" />
          </mxGeometry>
        </mxCell>
        <mxCell id="mR5br-HFFlUpTuxSKlOb-7" value="" style="endArrow=block;html=1;rounded=0;endFill=0;entryX=0.25;entryY=1;entryDx=0;entryDy=0;" parent="mR5br-HFFlUpTuxSKlOb-13" edge="1">
          <mxGeometry width="50" height="50" relative="1" as="geometry">
            <mxPoint x="100" y="130" as="sourcePoint" />
            <mxPoint x="220" y="60" as="targetPoint" />
          </mxGeometry>
        </mxCell>
        <mxCell id="mR5br-HFFlUpTuxSKlOb-8" value="" style="endArrow=block;html=1;rounded=0;endFill=0;entryX=0.75;entryY=1;entryDx=0;entryDy=0;" parent="mR5br-HFFlUpTuxSKlOb-13" target="mR5br-HFFlUpTuxSKlOb-1" edge="1">
          <mxGeometry width="50" height="50" relative="1" as="geometry">
            <mxPoint x="420" y="130" as="sourcePoint" />
            <mxPoint x="540" y="60" as="targetPoint" />
          </mxGeometry>
        </mxCell>
        <mxCell id="mR5br-HFFlUpTuxSKlOb-19" value="" style="shape=flexArrow;endArrow=classic;html=1;rounded=0;" parent="mR5br-HFFlUpTuxSKlOb-13" edge="1">
          <mxGeometry width="50" height="50" relative="1" as="geometry">
            <mxPoint x="180" y="30" as="sourcePoint" />
            <mxPoint x="-70" y="30" as="targetPoint" />
          </mxGeometry>
        </mxCell>
        <mxCell id="mR5br-HFFlUpTuxSKlOb-21" value="{filepaths, labels}" style="edgeLabel;html=1;align=center;verticalAlign=middle;resizable=0;points=[];" parent="mR5br-HFFlUpTuxSKlOb-19" vertex="1" connectable="0">
          <mxGeometry x="0.112" y="-3" relative="1" as="geometry">
            <mxPoint y="-17" as="offset" />
          </mxGeometry>
        </mxCell>
        <mxCell id="mR5br-HFFlUpTuxSKlOb-14" value="Dataset" style="rounded=0;whiteSpace=wrap;html=1;" parent="1" vertex="1">
          <mxGeometry x="294" y="356" width="120" height="60" as="geometry" />
        </mxCell>
        <mxCell id="mR5br-HFFlUpTuxSKlOb-15" value="MP3_validator" style="rounded=0;whiteSpace=wrap;html=1;" parent="1" vertex="1">
          <mxGeometry x="290" y="140" width="120" height="60" as="geometry" />
        </mxCell>
        <mxCell id="mR5br-HFFlUpTuxSKlOb-16" value="Validator Dataset" style="rounded=0;whiteSpace=wrap;html=1;" parent="1" vertex="1">
          <mxGeometry x="290" y="10" width="120" height="60" as="geometry" />
        </mxCell>
        <mxCell id="mR5br-HFFlUpTuxSKlOb-17" value="" style="endArrow=block;html=1;rounded=0;entryX=0.5;entryY=1;entryDx=0;entryDy=0;exitX=0.5;exitY=0;exitDx=0;exitDy=0;endFill=0;" parent="1" source="mR5br-HFFlUpTuxSKlOb-15" target="mR5br-HFFlUpTuxSKlOb-16" edge="1">
          <mxGeometry width="50" height="50" relative="1" as="geometry">
            <mxPoint x="580" y="310" as="sourcePoint" />
            <mxPoint x="630" y="260" as="targetPoint" />
          </mxGeometry>
        </mxCell>
        <mxCell id="mR5br-HFFlUpTuxSKlOb-20" value="" style="shape=flexArrow;endArrow=classic;html=1;rounded=0;" parent="1" edge="1">
          <mxGeometry width="50" height="50" relative="1" as="geometry">
            <mxPoint x="353" y="220" as="sourcePoint" />
            <mxPoint x="353" y="340" as="targetPoint" />
          </mxGeometry>
        </mxCell>
        <mxCell id="mR5br-HFFlUpTuxSKlOb-22" value="dict_dataset" style="edgeLabel;html=1;align=center;verticalAlign=middle;resizable=0;points=[];" parent="mR5br-HFFlUpTuxSKlOb-20" vertex="1" connectable="0">
          <mxGeometry x="-0.5143" y="2" relative="1" as="geometry">
            <mxPoint x="-45" y="31" as="offset" />
          </mxGeometry>
        </mxCell>
        <mxCell id="mR5br-HFFlUpTuxSKlOb-23" value="" style="endArrow=classic;html=1;rounded=0;" parent="1" edge="1">
          <mxGeometry width="50" height="50" relative="1" as="geometry">
            <mxPoint x="280" y="160" as="sourcePoint" />
            <mxPoint x="180" y="160" as="targetPoint" />
          </mxGeometry>
        </mxCell>
        <mxCell id="mR5br-HFFlUpTuxSKlOb-24" value="valid_files.csv" style="shape=note;whiteSpace=wrap;html=1;backgroundOutline=1;darkOpacity=0.05;" parent="1" vertex="1">
          <mxGeometry x="90" y="100" width="80" height="100" as="geometry" />
        </mxCell>
        <mxCell id="mR5br-HFFlUpTuxSKlOb-25" value="" style="endArrow=classic;html=1;rounded=0;" parent="1" edge="1">
          <mxGeometry width="50" height="50" relative="1" as="geometry">
            <mxPoint x="180" y="180" as="sourcePoint" />
            <mxPoint x="280" y="180" as="targetPoint" />
          </mxGeometry>
        </mxCell>
        <mxCell id="mR5br-HFFlUpTuxSKlOb-26" value="" style="shape=cylinder3;whiteSpace=wrap;html=1;boundedLbl=1;backgroundOutline=1;size=9;" parent="1" vertex="1">
          <mxGeometry x="46" y="170" width="30" height="40" as="geometry" />
        </mxCell>
        <mxCell id="mR5br-HFFlUpTuxSKlOb-30" value="" style="endArrow=classic;html=1;rounded=0;" parent="1" edge="1">
          <mxGeometry width="50" height="50" relative="1" as="geometry">
            <mxPoint x="290" y="390" as="sourcePoint" />
            <mxPoint x="200" y="450" as="targetPoint" />
            <Array as="points">
              <mxPoint x="200" y="390" />
            </Array>
          </mxGeometry>
        </mxCell>
        <mxCell id="mR5br-HFFlUpTuxSKlOb-31" value="dataset" style="rounded=0;whiteSpace=wrap;html=1;" parent="1" vertex="1">
          <mxGeometry x="156" y="450" width="90" height="20" as="geometry" />
        </mxCell>
        <mxCell id="mR5br-HFFlUpTuxSKlOb-32" value="train" style="rounded=0;whiteSpace=wrap;html=1;" parent="1" vertex="1">
          <mxGeometry x="126" y="510" width="70" height="20" as="geometry" />
        </mxCell>
        <mxCell id="mR5br-HFFlUpTuxSKlOb-33" value="validation" style="rounded=0;whiteSpace=wrap;html=1;" parent="1" vertex="1">
          <mxGeometry x="206" y="510" width="70" height="20" as="geometry" />
        </mxCell>
        <mxCell id="mR5br-HFFlUpTuxSKlOb-37" value="" style="endArrow=block;html=1;rounded=0;exitX=0.5;exitY=0;exitDx=0;exitDy=0;endFill=0;entryX=0.25;entryY=1;entryDx=0;entryDy=0;" parent="1" source="mR5br-HFFlUpTuxSKlOb-35" target="mR5br-HFFlUpTuxSKlOb-34" edge="1">
          <mxGeometry width="50" height="50" relative="1" as="geometry">
            <mxPoint x="1250" y="-18.75" as="sourcePoint" />
            <mxPoint x="1280" y="181.25" as="targetPoint" />
          </mxGeometry>
        </mxCell>
        <mxCell id="mR5br-HFFlUpTuxSKlOb-38" value="" style="endArrow=block;html=1;rounded=0;exitX=0.5;exitY=0;exitDx=0;exitDy=0;endFill=0;entryX=0.75;entryY=1;entryDx=0;entryDy=0;" parent="1" source="mR5br-HFFlUpTuxSKlOb-36" edge="1" target="mR5br-HFFlUpTuxSKlOb-34">
          <mxGeometry width="50" height="50" relative="1" as="geometry">
            <mxPoint x="1190" y="161.25" as="sourcePoint" />
            <mxPoint x="1380" y="171.25" as="targetPoint" />
          </mxGeometry>
        </mxCell>
        <mxCell id="mR5br-HFFlUpTuxSKlOb-51" value="" style="shape=flexArrow;endArrow=classic;html=1;rounded=0;entryX=0;entryY=0.5;entryDx=0;entryDy=0;" parent="1" target="mR5br-HFFlUpTuxSKlOb-34" edge="1">
          <mxGeometry width="50" height="50" relative="1" as="geometry">
            <mxPoint x="290" y="490" as="sourcePoint" />
            <mxPoint x="410" y="550" as="targetPoint" />
            <Array as="points">
              <mxPoint x="410" y="490" />
              <mxPoint x="1030" y="490" />
              <mxPoint x="1030" y="100" />
            </Array>
          </mxGeometry>
        </mxCell>
        <mxCell id="mR5br-HFFlUpTuxSKlOb-66" value="" style="endArrow=classic;html=1;rounded=0;exitX=0.5;exitY=1;exitDx=0;exitDy=0;entryX=0.5;entryY=0;entryDx=0;entryDy=0;" parent="1" source="mR5br-HFFlUpTuxSKlOb-55" edge="1" target="mR5br-HFFlUpTuxSKlOb-67">
          <mxGeometry width="50" height="50" relative="1" as="geometry">
            <mxPoint x="1470" y="681.25" as="sourcePoint" />
            <mxPoint x="1171" y="600" as="targetPoint" />
            <Array as="points">
              <mxPoint x="1150" y="510" />
              <mxPoint x="887" y="510" />
            </Array>
          </mxGeometry>
        </mxCell>
        <mxCell id="BR6JUeZKY4c0eNy7wdTP-2" value="" style="group" vertex="1" connectable="0" parent="1">
          <mxGeometry x="1051" y="230" width="190" height="210" as="geometry" />
        </mxCell>
        <mxCell id="mR5br-HFFlUpTuxSKlOb-35" value="&lt;div&gt;&lt;br&gt;&lt;/div&gt;GANAIModelWrapper" style="rounded=0;whiteSpace=wrap;html=1;verticalAlign=top;container=0;" parent="BR6JUeZKY4c0eNy7wdTP-2" vertex="1">
          <mxGeometry width="190" height="210" as="geometry" />
        </mxCell>
        <mxCell id="mR5br-HFFlUpTuxSKlOb-55" value="&amp;nbsp; - train step&lt;div&gt;&amp;nbsp; - validation step&lt;/div&gt;&lt;div&gt;&amp;nbsp; - on train epoch end&lt;/div&gt;&lt;div&gt;&amp;nbsp; - on validation epoch end&lt;/div&gt;" style="text;html=1;align=left;verticalAlign=middle;whiteSpace=wrap;rounded=0;container=0;" parent="BR6JUeZKY4c0eNy7wdTP-2" vertex="1">
          <mxGeometry x="16" y="140" width="169" height="70" as="geometry" />
        </mxCell>
        <mxCell id="mR5br-HFFlUpTuxSKlOb-39" value="&lt;div&gt;&lt;br&gt;&lt;/div&gt;GAN" style="rounded=0;whiteSpace=wrap;html=1;verticalAlign=top;" parent="BR6JUeZKY4c0eNy7wdTP-2" vertex="1">
          <mxGeometry x="5" y="50" width="180" height="80" as="geometry" />
        </mxCell>
        <mxCell id="mR5br-HFFlUpTuxSKlOb-40" value="Discriminator" style="rounded=0;whiteSpace=wrap;html=1;" parent="BR6JUeZKY4c0eNy7wdTP-2" vertex="1">
          <mxGeometry x="10" y="96" width="80" height="30" as="geometry" />
        </mxCell>
        <mxCell id="mR5br-HFFlUpTuxSKlOb-42" value="Generator" style="rounded=0;whiteSpace=wrap;html=1;" parent="BR6JUeZKY4c0eNy7wdTP-2" vertex="1">
          <mxGeometry x="100" y="96" width="80" height="30" as="geometry" />
        </mxCell>
        <mxCell id="BR6JUeZKY4c0eNy7wdTP-3" value="" style="group" vertex="1" connectable="0" parent="1">
          <mxGeometry x="1280" y="230" width="190" height="210" as="geometry" />
        </mxCell>
        <mxCell id="mR5br-HFFlUpTuxSKlOb-36" value="&lt;div&gt;&lt;br&gt;&lt;/div&gt;VAEAIModelWrapper" style="rounded=0;whiteSpace=wrap;html=1;verticalAlign=top;" parent="BR6JUeZKY4c0eNy7wdTP-3" vertex="1">
          <mxGeometry width="190" height="210" as="geometry" />
        </mxCell>
        <mxCell id="mR5br-HFFlUpTuxSKlOb-57" value="&amp;nbsp; - train step&lt;div&gt;&amp;nbsp; - validation step&lt;/div&gt;&lt;div&gt;&amp;nbsp; - on train epoch end&lt;/div&gt;&lt;div&gt;&amp;nbsp; - on validation epoch end&lt;/div&gt;" style="text;html=1;align=left;verticalAlign=middle;whiteSpace=wrap;rounded=0;" parent="BR6JUeZKY4c0eNy7wdTP-3" vertex="1">
          <mxGeometry x="14" y="138" width="162" height="69" as="geometry" />
        </mxCell>
        <mxCell id="mR5br-HFFlUpTuxSKlOb-47" value="" style="group" parent="BR6JUeZKY4c0eNy7wdTP-3" vertex="1" connectable="0">
          <mxGeometry x="5" y="50" width="180" height="80" as="geometry" />
        </mxCell>
        <mxCell id="mR5br-HFFlUpTuxSKlOb-48" value="&lt;div&gt;&lt;br&gt;&lt;/div&gt;VAE" style="rounded=0;whiteSpace=wrap;html=1;verticalAlign=top;" parent="mR5br-HFFlUpTuxSKlOb-47" vertex="1">
          <mxGeometry width="180" height="80" as="geometry" />
        </mxCell>
        <mxCell id="mR5br-HFFlUpTuxSKlOb-49" value="Encoder" style="rounded=0;whiteSpace=wrap;html=1;" parent="mR5br-HFFlUpTuxSKlOb-47" vertex="1">
          <mxGeometry x="5" y="46" width="80" height="30" as="geometry" />
        </mxCell>
        <mxCell id="mR5br-HFFlUpTuxSKlOb-50" value="Decoder" style="rounded=0;whiteSpace=wrap;html=1;" parent="mR5br-HFFlUpTuxSKlOb-47" vertex="1">
          <mxGeometry x="95" y="46" width="80" height="30" as="geometry" />
        </mxCell>
        <mxCell id="BR6JUeZKY4c0eNy7wdTP-5" value="" style="group" vertex="1" connectable="0" parent="1">
          <mxGeometry x="1150" y="26.25" width="236" height="145" as="geometry" />
        </mxCell>
        <mxCell id="mR5br-HFFlUpTuxSKlOb-34" value="&amp;nbsp; &amp;nbsp; &amp;nbsp; &amp;nbsp; AIModel" style="rounded=0;whiteSpace=wrap;html=1;align=left;" parent="BR6JUeZKY4c0eNy7wdTP-5" vertex="1">
          <mxGeometry width="216" height="145" as="geometry" />
        </mxCell>
        <mxCell id="mR5br-HFFlUpTuxSKlOb-56" value="&lt;span style=&quot;color: light-dark(rgb(0, 0, 0), rgb(255, 255, 255)); background-color: transparent;&quot;&gt;&amp;nbsp; - metrics&amp;nbsp;&lt;/span&gt;&lt;br style=&quot;&quot;&gt;&lt;span style=&quot;color: light-dark(rgb(0, 0, 0), rgb(255, 255, 255)); background-color: transparent;&quot;&gt;&amp;nbsp; - logs&lt;/span&gt;&lt;br style=&quot;&quot;&gt;&lt;span style=&quot;&quot;&gt;&amp;nbsp; - generate audio&lt;/span&gt;" style="text;html=1;align=left;verticalAlign=middle;whiteSpace=wrap;rounded=0;" parent="BR6JUeZKY4c0eNy7wdTP-5" vertex="1">
          <mxGeometry x="116" y="45" width="120" height="70" as="geometry" />
        </mxCell>
        <mxCell id="BR6JUeZKY4c0eNy7wdTP-6" value="" style="group" vertex="1" connectable="0" parent="1">
          <mxGeometry x="832" y="530" width="628" height="200" as="geometry" />
        </mxCell>
        <mxCell id="mR5br-HFFlUpTuxSKlOb-63" value="Euterpe" style="swimlane;whiteSpace=wrap;html=1;" parent="BR6JUeZKY4c0eNy7wdTP-6" vertex="1">
          <mxGeometry x="298" width="200" height="200" as="geometry" />
        </mxCell>
        <mxCell id="mR5br-HFFlUpTuxSKlOb-64" value="Usuario" style="shape=umlActor;verticalLabelPosition=bottom;verticalAlign=top;html=1;outlineConnect=0;" parent="BR6JUeZKY4c0eNy7wdTP-6" vertex="1">
          <mxGeometry x="598" y="70" width="30" height="60" as="geometry" />
        </mxCell>
        <mxCell id="mR5br-HFFlUpTuxSKlOb-72" value="" style="endArrow=classic;html=1;rounded=0;" parent="BR6JUeZKY4c0eNy7wdTP-6" source="mR5br-HFFlUpTuxSKlOb-64" edge="1">
          <mxGeometry width="50" height="50" relative="1" as="geometry">
            <mxPoint x="108" y="135.5" as="sourcePoint" />
            <mxPoint x="508" y="100.5" as="targetPoint" />
          </mxGeometry>
        </mxCell>
        <mxCell id="mR5br-HFFlUpTuxSKlOb-73" value="genre" style="edgeLabel;html=1;align=center;verticalAlign=middle;resizable=0;points=[];" parent="mR5br-HFFlUpTuxSKlOb-72" vertex="1" connectable="0">
          <mxGeometry x="-0.3666" relative="1" as="geometry">
            <mxPoint x="-21" y="-15" as="offset" />
          </mxGeometry>
        </mxCell>
        <mxCell id="mR5br-HFFlUpTuxSKlOb-74" value="" style="shape=flexArrow;endArrow=classic;html=1;rounded=0;" parent="BR6JUeZKY4c0eNy7wdTP-6" edge="1">
          <mxGeometry width="50" height="50" relative="1" as="geometry">
            <mxPoint x="288" y="85.5" as="sourcePoint" />
            <mxPoint x="198" y="85.5" as="targetPoint" />
          </mxGeometry>
        </mxCell>
        <mxCell id="mR5br-HFFlUpTuxSKlOb-75" value="noise&lt;br&gt;genre" style="edgeLabel;html=1;align=center;verticalAlign=middle;resizable=0;points=[];" parent="mR5br-HFFlUpTuxSKlOb-74" vertex="1" connectable="0">
          <mxGeometry x="-0.2222" relative="1" as="geometry">
            <mxPoint x="-10" y="-25" as="offset" />
          </mxGeometry>
        </mxCell>
        <mxCell id="mR5br-HFFlUpTuxSKlOb-76" value="" style="shape=flexArrow;endArrow=classic;html=1;rounded=0;" parent="BR6JUeZKY4c0eNy7wdTP-6" edge="1">
          <mxGeometry width="50" height="50" relative="1" as="geometry">
            <mxPoint x="204" y="130" as="sourcePoint" />
            <mxPoint x="289" y="130" as="targetPoint" />
          </mxGeometry>
        </mxCell>
        <mxCell id="mR5br-HFFlUpTuxSKlOb-77" value="MP3" style="edgeLabel;html=1;align=center;verticalAlign=middle;resizable=0;points=[];" parent="mR5br-HFFlUpTuxSKlOb-76" vertex="1" connectable="0">
          <mxGeometry x="-0.2222" relative="1" as="geometry">
            <mxPoint x="1" y="16" as="offset" />
          </mxGeometry>
        </mxCell>
        <mxCell id="mR5br-HFFlUpTuxSKlOb-78" value="" style="endArrow=classic;html=1;rounded=0;" parent="BR6JUeZKY4c0eNy7wdTP-6" edge="1">
          <mxGeometry width="50" height="50" relative="1" as="geometry">
            <mxPoint x="508" y="125.5" as="sourcePoint" />
            <mxPoint x="588" y="125.5" as="targetPoint" />
          </mxGeometry>
        </mxCell>
        <mxCell id="mR5br-HFFlUpTuxSKlOb-79" value="audio" style="edgeLabel;html=1;align=center;verticalAlign=middle;resizable=0;points=[];" parent="mR5br-HFFlUpTuxSKlOb-78" vertex="1" connectable="0">
          <mxGeometry x="-0.225" y="7" relative="1" as="geometry">
            <mxPoint x="9" y="22" as="offset" />
          </mxGeometry>
        </mxCell>
        <mxCell id="BR6JUeZKY4c0eNy7wdTP-1" value="" style="group" vertex="1" connectable="0" parent="BR6JUeZKY4c0eNy7wdTP-6">
          <mxGeometry y="53.5" width="266" height="131" as="geometry" />
        </mxCell>
        <mxCell id="mR5br-HFFlUpTuxSKlOb-67" value="" style="rounded=1;whiteSpace=wrap;html=1;" parent="BR6JUeZKY4c0eNy7wdTP-1" vertex="1">
          <mxGeometry x="-78" y="-19" width="266" height="131" as="geometry" />
        </mxCell>
        <mxCell id="mR5br-HFFlUpTuxSKlOb-65" value="compiled&lt;div&gt;model&lt;/div&gt;" style="shape=dataStorage;whiteSpace=wrap;html=1;fixedSize=1;size=20;" parent="BR6JUeZKY4c0eNy7wdTP-1" vertex="1">
          <mxGeometry x="-2" y="6.5" width="100" height="80" as="geometry" />
        </mxCell>
      </root>
    </mxGraphModel>
  </diagram>
</mxfile>
